<?xml version="1.0" standalone="no"?>
<!DOCTYPE svg PUBLIC "-//W3C//DTD SVG 20010904//EN"
 "http://www.w3.org/TR/2001/REC-SVG-20010904/DTD/svg10.dtd">
<svg version="1.0" xmlns="http://www.w3.org/2000/svg"
 width="636.000000pt" height="392.000000pt" viewBox="0 0 636.000000 392.000000"
 preserveAspectRatio="xMidYMid meet">

<g transform="translate(0.000000,392.000000) scale(0.100000,-0.100000)"
fill="#9ca3af" stroke="none">
<path d="M3035 2516 c-17 -7 -49 -37 -70 -65 -22 -29 -49 -54 -60 -56 -11 -3
-87 -6 -168 -7 l-149 -3 -24 -28 -24 -28 0 -363 c0 -275 3 -366 13 -378 33
-41 58 -48 179 -48 l118 0 54 -44 c29 -24 80 -56 112 -72 53 -26 69 -29 159
-29 90 0 106 3 165 31 36 17 87 49 113 72 l48 42 124 0 c123 0 125 0 156 28
37 33 35 7 31 490 l-2 274 -29 29 -29 29 -157 0 -157 0 -31 37 c-18 20 -44 50
-59 67 l-26 31 -129 3 c-92 1 -137 -2 -158 -12z m308 -160 l62 -66 158 0 157
0 -2 -322 -3 -323 -74 -3 -74 -3 9 43 c5 24 9 88 8 143 0 90 -3 106 -29 160
-37 76 -126 164 -202 201 -54 27 -66 29 -178 29 -138 0 -172 -11 -263 -86
-121 -99 -180 -283 -137 -425 8 -27 15 -52 15 -56 0 -5 -34 -8 -75 -8 l-75 0
0 325 c0 253 3 325 13 326 6 1 69 0 138 -1 149 -2 179 7 228 75 40 55 70 66
179 61 l83 -4 62 -66z m-41 -253 c65 -30 133 -95 165 -162 24 -47 28 -68 27
-131 -2 -127 -65 -228 -179 -288 -43 -23 -62 -27 -135 -27 -73 0 -93 4 -142
28 -220 108 -240 422 -35 554 21 13 55 30 75 38 52 20 165 13 224 -12z"/>
<path d="M2712 2222 c-8 -6 -12 -24 -10 -48 l3 -39 45 0 45 0 0 45 c0 44 -1
45 -35 48 -19 1 -41 -2 -48 -6z"/>
<path d="M3070 2049 c-83 -38 -138 -108 -160 -204 -13 -58 -1 -85 39 -85 35 0
47 14 55 66 14 79 67 131 155 148 51 11 56 14 59 39 2 16 -2 35 -9 43 -17 20
-86 17 -139 -7z"/>
</g>
</svg>
